<?xml version="1.0" encoding="UTF-8"?>
<svg width="1934px" height="480px" viewBox="0 0 1934 480" version="1.1" xmlns="http://www.w3.org/2000/svg" xmlns:xlink="http://www.w3.org/1999/xlink">
    <title>编组 2</title>
    <defs>
        <path d="M137.219,0 C61.436,0 1.13686838e-13,61.402 1.13686838e-13,137.142 L1.13686838e-13,137.142 L1.13686838e-13,342.859 C1.13686838e-13,348.407 0.332,353.877 0.972,359.254 L0.972,359.254 L307.093,359.258 C333.619,359.258 355.121,337.767 355.121,311.257 L355.121,311.257 L355.121,266.206 C355.121,239.696 333.619,218.205 307.093,218.205 L307.093,218.205 L194.469,218.205 C180.739,218.205 169.607,207.08 169.607,193.357 L169.607,193.357 C169.607,179.636 180.739,168.51 194.469,168.51 L194.469,168.51 L480.619,168.51 L480.619,185.87 C480.619,203.728 466.135,218.205 448.266,218.205 L448.266,218.205 C430.397,218.205 415.913,232.682 415.913,250.541 L415.913,250.541 L415.912,369.828 L415.907,370.184 C415.512,400.025 390.992,423.894 361.133,423.499 L361.133,423.499 L59.495,419.511 C37.539,419.219 18.452,407.225 8.146,389.513 L8.146,389.513 C27.246,442.285 77.825,480 137.219,480 L137.219,480 L344.78,480 C420.566,480 482.001,418.599 482.001,342.859 L482.001,342.859 L482.001,137.142 C482.001,132.412 481.762,127.742 481.293,123.134 L481.293,123.134 L180.697,123.136 C154.172,123.136 132.671,144.625 132.671,171.135 L132.671,171.135 L132.671,211.703 C132.671,238.212 154.172,259.703 180.697,259.703 L180.697,259.703 L288.578,259.703 C301.872,259.703 312.647,270.472 312.647,283.759 L312.647,283.759 C312.647,297.047 301.872,307.816 288.578,307.816 L288.578,307.816 L0.431,307.816 L0.431,296.556 C0.431,276.203 16.939,259.703 37.303,259.703 L37.303,259.703 C57.668,259.703 74.176,243.203 74.176,222.849 L74.176,222.849 L74.177,112.906 L74.181,112.564 C74.558,83.669 98.302,60.552 127.213,60.928 L127.213,60.928 L424.224,64.808 C447.581,65.113 467.586,79.098 476.648,99.084 L476.648,99.084 C460.142,41.856 407.353,0 344.78,0 L344.78,0 L137.219,0 Z" id="path-1"></path>
        <path d="M73.2,0 L73.2,19.499 L6.3,19.499 L6.3,47.1 L73.2,47.1 L73.2,59.399 L31.8,59.399 L31.8,54.599 L3.6,54.599 L3.6,125.099 L54.6,125.099 C48.799,129.099 42.1,131.899 34.5,133.499 L34.5,133.499 C26.9,135.099 18.701,135.899 9.9,135.899 L9.9,135.899 L0,135.899 L0,166.199 L8.701,166.199 C14.5,166.199 20.4,165.899 26.4,165.299 L26.4,165.299 L26.4,219.899 L62.4,219.899 L62.4,179.099 L190.8,179.099 L190.8,218.999 C181.6,216.199 172.6,213.349 163.8,210.449 L163.8,210.449 C155,207.549 146.8,204.999 139.2,202.799 L139.2,202.799 C139.4,201.199 139.55,199.499 139.65,197.699 L139.65,197.699 C139.75,195.898 139.8,194.099 139.8,192.299 L139.8,192.299 L139.8,185.399 L102.3,185.399 L102.3,192.299 C102.3,200.499 100.25,207.049 96.15,211.949 L96.15,211.949 C92.05,216.849 86.25,220.599 78.75,223.199 L78.75,223.199 C71.25,225.8 62.1,227.499 51.3,228.299 L51.3,228.299 C40.5,229.099 28.5,229.499 15.299,229.499 L15.299,229.499 L3,229.499 L3,265.499 L17.7,265.499 C47.1,265.499 70.85,262.999 88.95,257.999 L88.95,257.999 C107.05,252.999 120.3,244.699 128.7,233.099 L128.7,233.099 C136.9,236.099 145.95,239.449 155.85,243.149 L155.85,243.149 C165.75,246.849 175.6,250.549 185.4,254.25 L185.4,254.25 C195.2,257.949 204.5,261.499 213.299,264.899 L213.299,264.899 C222.1,268.299 229.5,271.199 235.5,273.599 L235.5,273.599 L250.5,238.499 C243.5,236.099 235,233.249 225,229.949 L225,229.949 C215,226.649 204.601,223.299 193.8,219.899 L193.8,219.899 L227.1,219.899 L227.1,179.099 C227.1,169.099 224.2,161.799 218.4,157.199 L218.4,157.199 C212.6,152.599 204.3,150.299 193.5,150.299 L193.5,150.299 L75,150.299 C85.4,144.099 93.5,135.699 99.299,125.099 L99.299,125.099 L143.399,125.099 L143.399,146.099 L179.1,146.099 L179.1,125.099 L223.8,125.099 L223.8,131.999 C223.8,135.799 222.7,138.699 220.5,140.699 L220.5,140.699 C218.299,142.699 215,144.799 210.6,146.999 L210.6,146.999 L229.5,169.199 C234.9,166.999 239.25,164.849 242.55,162.749 L242.55,162.749 C245.85,160.649 248.4,158.349 250.2,155.849 L250.2,155.849 C252,153.349 253.149,150.649 253.65,147.749 L253.65,147.749 C254.15,144.849 254.4,141.599 254.4,137.999 L254.4,137.999 L254.4,128.099 C254.4,123.499 253.95,119.349 253.049,115.649 L253.049,115.649 C252.15,111.949 250.55,108.749 248.25,106.049 L248.25,106.049 C245.95,103.35 242.8,101.249 238.8,99.75 L238.8,99.75 C234.8,98.249 229.8,97.499 223.8,97.499 L223.8,97.499 L179.1,97.499 L179.1,86.999 L245.7,86.999 L245.7,48.899 C245.7,44.099 245.25,39.849 244.35,36.149 L244.35,36.149 C243.45,32.449 241.75,29.349 239.25,26.849 L239.25,26.849 C236.75,24.349 233.35,22.499 229.05,21.299 L229.05,21.299 C224.75,20.099 219.3,19.499 212.7,19.499 L212.7,19.499 L179.1,19.499 L179.1,0.899 L143.399,0.899 L143.399,19.499 L108.9,19.499 L108.9,0 L73.2,0 Z M179.1,59.4 L216.9,59.4 L216.9,47.1 L179.1,47.1 L179.1,59.4 Z M108.9,59.4 L143.4,59.4 L143.4,47.1 L108.9,47.1 L108.9,59.4 Z M108.451,92.399 C108.549,90.599 108.6,88.799 108.6,86.999 L108.6,86.999 L143.399,86.999 L143.399,97.499 L108,97.499 C108.2,95.899 108.35,94.199 108.451,92.399 L108.451,92.399 Z M31.8,86.999 L73.2,86.999 C73,88.999 72.849,90.849 72.75,92.549 L72.75,92.549 C72.65,94.249 72.4,95.899 72,97.499 L72,97.499 L31.8,97.499 L31.8,86.999 Z" id="path-3"></path>
        <path d="M31.2,0 L31.2,160.5 L68.4,160.5 L68.4,152.1 L148.5,152.1 L120.9,169.8 C122.9,172.4 125.4,175.95 128.4,180.45 L128.4,180.45 C131.4,184.95 134.601,189.8 138,195 L138,195 C141.4,200.2 144.75,205.4 148.05,210.6 L148.05,210.6 C151.35,215.8 154.2,220.3 156.6,224.1 L156.6,224.1 L187.5,203.101 C184.9,199.1 181.9,194.65 178.5,189.75 L178.5,189.75 C175.1,184.85 171.65,180.05 168.15,175.351 L168.15,175.351 C164.65,170.65 161.35,166.25 158.25,162.15 L158.25,162.15 C155.15,158.05 152.6,154.7 150.6,152.1 L150.6,152.1 L209.1,152.1 L209.1,160.5 L246.3,160.5 L246.3,42 C246.3,30.4 244.15,21.75 239.85,16.05 L239.85,16.05 C235.55,10.35 227.7,7.5 216.3,7.5 L216.3,7.5 L68.4,7.5 L68.4,0 L31.2,0 Z M157.2,63.6 L209.1,63.6 L209.1,41.7 L157.2,41.7 L157.2,63.6 Z M68.4,63.6 L121.2,63.6 L121.2,41.7 L68.4,41.7 L68.4,63.6 Z M157.2,117.9 L209.1,117.9 L209.1,96.6 L157.2,96.6 L157.2,117.9 Z M68.4,117.9 L121.2,117.9 L121.2,96.6 L68.4,96.6 L68.4,117.9 Z M209.4,177.6 C211.8,182.2 214.449,187.55 217.35,193.65 L217.35,193.65 C220.25,199.75 223.2,206.1 226.2,212.7 L226.2,212.7 C229.2,219.3 232.1,225.8 234.9,232.2 L234.9,232.2 C237.7,238.6 240.199,244.399 242.4,249.6 L242.4,249.6 L277.8,234.3 C275.601,229.5 273,223.95 270,217.65 L270,217.65 C267,211.35 263.9,204.95 260.7,198.45 L260.7,198.45 C257.5,191.95 254.35,185.65 251.25,179.55 L251.25,179.55 C248.15,173.45 245.4,168.1 243,163.5 L243,163.5 L209.4,177.6 Z M15.75,204 C10.85,216.601 5.6,228.1 0,238.5 L0,238.5 L35.1,251.4 C40.5,240 45.75,227.6 50.85,214.2 L50.85,214.2 C55.95,200.8 60.2,188.101 63.6,176.1 L63.6,176.1 L27.9,166.8 C24.7,179 20.65,191.4 15.75,204 L15.75,204 Z M69.6,167.1 L69.6,229.5 C69.6,241.501 72.7,250.35 78.9,256.05 L78.9,256.05 C85.1,261.75 95.1,264.6 108.9,264.6 L108.9,264.6 L213.9,264.6 L213.9,230.1 L120.9,230.1 C115.7,230.1 111.949,229 109.65,226.8 L109.65,226.8 C107.35,224.6 106.199,220.899 106.199,215.7 L106.199,215.7 L106.199,167.1 L69.6,167.1 Z" id="path-5"></path>
        <path d="M30.9,12.9 C33.1,17.3 35.649,22.55 38.549,28.65 L38.549,28.65 C41.45,34.751 44.1,40.6 46.5,46.2 L46.5,46.2 L14.4,46.2 L14.4,80.4 L61.2,80.4 C58,86.2 54.3,92.55 50.1,99.45 L50.1,99.45 C45.9,106.35 41.25,113.4 36.15,120.6 L36.15,120.6 C31.05,127.8 25.45,134.9 19.35,141.9 L19.35,141.9 C13.25,148.9 6.8,155.4 2.27373675e-13,161.4 L2.27373675e-13,161.4 L19.8,194.4 C23.6,191 27.15,187.6 30.45,184.2 L30.45,184.2 C33.75,180.8 37.1,177.4 40.5,174 L40.5,174 L40.5,269.1 L75.9,269.1 L75.9,163.5 C78.7,166.3 81.45,169.15 84.15,172.05 L84.15,172.05 C86.85,174.95 89.6,177.8 92.4,180.6 L92.4,180.6 L106.799,163.8 L106.799,269.1 L141,269.1 L141,260.7 L237.899,260.7 L237.899,269.1 L272.1,269.1 L272.1,170.1 C272.1,158.5 269.899,150.35 265.5,145.65 L265.5,145.65 C261.1,140.95 253.3,138.6 242.1,138.6 L242.1,138.6 L106.799,138.6 L106.799,146.4 C102.4,142.4 97.75,138.25 92.85,133.95 L92.85,133.95 C87.95,129.65 83.4,125.7 79.2,122.1 L79.2,122.1 C83.2,115.7 86.899,109.25 90.3,102.75 L90.3,102.75 C93.7,96.25 97.1,89.7 100.5,83.1 L100.5,83.1 C102.5,79.1 103.45,74.9 103.35,70.5 L103.35,70.5 C103.25,66.101 102.25,62.1 100.35,58.5 L100.35,58.5 C98.45,54.9 95.7,51.95 92.1,49.65 L92.1,49.65 C88.5,47.35 84,46.2 78.6,46.2 L78.6,46.2 L75.3,46.2 L83.1,42.9 C81.7,39.9 80.15,36.45 78.45,32.55 L78.45,32.55 C76.75,28.65 74.95,24.75 73.05,20.85 L73.05,20.85 C71.149,16.95 69.35,13.2 67.649,9.6 L67.649,9.6 C65.95,6 64.4,2.8 63,0 L63,0 L30.9,12.9 Z M207,184.2 L237.9,184.2 L237.9,168.9 L207,168.9 L207,184.2 Z M141,184.2 L172.2,184.2 L172.2,168.9 L141,168.9 L141,184.2 Z M207,231.301 L237.9,231.301 L237.9,213.9 L207,213.9 L207,231.301 Z M141,231.301 L172.2,231.301 L172.2,213.9 L141,213.9 L141,231.301 Z M104.1,47.1 L269.099,47.1 L269.099,14.699 L104.1,14.699 L104.1,47.1 Z M115.2,50.401 L115.2,134.1 L150,134.1 L150,128.1 L229.2,128.1 L229.2,134.1 L264.899,134.1 L264.899,85.5 C264.899,76.5 262.6,69.5 258,64.5 L258,64.5 C253.399,59.5 247,56.801 238.8,56.4 L238.8,56.4 L150,56.4 L150,50.401 L115.2,50.401 Z M150,99.601 L229.201,99.601 L229.201,85.8 L150,85.8 L150,99.601 Z" id="path-7"></path>
        <path d="M5.7,26.701 C8.699,29.1 12.25,31.95 16.35,35.25 L16.35,35.25 C20.45,38.55 24.75,42 29.25,45.6 L29.25,45.6 C33.75,49.2 38.15,52.75 42.45,56.25 L42.45,56.25 C46.75,59.75 50.6,62.9 54,65.7 L54,65.7 L75.6,36.001 L25.8,0 L5.7,26.701 Z M90.9,3.3 L90.9,38.1 C90.9,41.701 90.2,44.2 88.8,45.6 L88.8,45.6 C87.4,47 85.6,47.7 83.4,47.7 L83.4,47.7 L75,47.7 L75,79.5 L85.8,79.5 C98.2,79.5 107.699,77.25 114.3,72.75 L114.3,72.75 C120.9,68.25 124.8,60.201 126,48.6 L126,48.6 L216.3,48.6 L201,66.6 L232.2,80.7 L256.5,51.6 C259.1,48.4 260.7,44.8 261.3,40.8 L261.3,40.8 C261.9,36.8 261.4,33.05 259.8,29.55 L259.8,29.55 C258.2,26.051 255.5,23.1 251.7,20.7 L251.7,20.7 C247.9,18.3 242.9,17.1 236.699,17.1 L236.699,17.1 L126.3,17.1 L126.3,3.3 L90.9,3.3 Z M146.7,54.9 L146.7,75.3 C146.7,81.9 145.5,87.55 143.1,92.249 L143.1,92.249 C140.7,96.95 136.85,100.7 131.55,103.5 L131.55,103.5 C126.25,106.3 119.35,108.35 110.85,109.65 L110.85,109.65 C102.35,110.95 91.9,111.6 79.5,111.6 L79.5,111.6 L71.1,111.6 L71.1,147 L81.9,147 C102.9,147 120.15,144.8 133.65,140.4 L133.65,140.4 C147.15,136 157.9,130.1 165.9,122.7 L165.9,122.7 C173.1,130.1 183.199,136 196.2,140.4 L196.2,140.4 C209.2,144.8 226.2,147 247.2,147 L247.2,147 L260.4,147 L260.4,111.6 L249.599,111.6 C238.4,111.6 228.9,111.1 221.099,110.1 L221.099,110.1 C213.3,109.1 206.849,107.5 201.75,105.3 L201.75,105.3 C196.65,103.1 192.75,100.15 190.05,96.45 L190.05,96.45 C187.35,92.75 185.6,88.3 184.8,83.1 L184.8,83.1 C185,81.9 185.15,80.65 185.25,79.35 L185.25,79.35 C185.349,78.051 185.4,76.7 185.4,75.3 L185.4,75.3 L185.4,54.9 L146.7,54.9 Z M40.65,81 C35.95,86.8 30.95,92.85 25.65,99.15 L25.65,99.15 C20.35,105.45 15.25,111.35 10.35,116.85 L10.35,116.85 C5.45,122.35 2,126.2 -4.54747351e-13,128.4 L-4.54747351e-13,128.4 L28.5,151.2 C30.7,148.4 34.15,144.05 38.85,138.15 L38.85,138.15 C43.55,132.25 48.5,126.1 53.699,119.7 L53.699,119.7 C58.9,113.3 63.8,107.201 68.4,101.4 L68.4,101.4 C73,95.6 76.3,91.4 78.3,88.8 L78.3,88.8 L50.4,68.4 C48.6,71 45.35,75.201 40.65,81 L40.65,81 Z M30.9,153.3 L30.9,261.6 L69.299,261.6 L69.299,253.5 L202.5,253.5 L202.5,261.6 L240.9,261.6 L240.9,186.6 C240.9,175.8 238.05,167.55 232.349,161.85 L232.349,161.85 C226.65,156.15 218.199,153.3 207,153.3 L207,153.3 L30.9,153.3 Z M69.299,219.6 L202.5,219.6 L202.5,186.6 L69.299,186.6 L69.299,219.6 Z" id="path-9"></path>
        <path d="M91.8,2.27373675e-13 L91.8,45.3 C91.8,48.9 90.8,51.7 88.8,53.7 L88.8,53.7 C86.8,55.7 84.4,56.7 81.6,56.7 L81.6,56.7 L69.6,56.7 L69.6,90.001 L82.8,90.001 L88.05,90.001 C89.75,90.001 91.4,89.8 93,89.4 L93,89.4 L93,234.3 L128.7,234.3 L128.7,225.3 L168.6,225.3 L168.6,234.3 L201.3,234.3 L195.3,237 L216.9,268.8 C231.9,262.4 242.7,255.25 249.3,247.35 L249.3,247.35 C255.9,239.45 259.2,230.4 259.2,220.2 L259.2,220.2 L259.2,58.2 C259.2,47.6 256.349,39.45 250.65,33.751 L250.65,33.751 C244.95,28.05 235.2,25.2 221.4,25.2 L221.4,25.2 L127.5,25.2 L127.5,2.27373675e-13 L91.8,2.27373675e-13 Z M126.9,60 L221.1,60 L221.1,211.5 C221.1,219.9 215.5,227 204.3,232.8 L204.3,232.8 L204.3,112.2 C204.3,101 201.1,92.8 194.7,87.6 L194.7,87.6 C188.3,82.4 179.499,79.8 168.3,79.8 L168.3,79.8 L116.7,79.8 C122.3,74.8 125.7,68.2 126.9,60 L126.9,60 Z M128.7,136.5 L168.6,136.5 L168.6,113.7 L128.7,113.7 L128.7,136.5 Z M128.7,190.8 L168.6,190.8 L168.6,170.1 L128.7,170.1 L128.7,190.8 Z M3.599,24.3 C6.2,27.3 9.45,31 13.35,35.4 L13.35,35.4 C17.249,39.8 21.2,44.35 25.2,49.05 L25.2,49.05 C29.2,53.75 33.1,58.3 36.9,62.7 L36.9,62.7 C40.7,67.1 43.9,70.8 46.499,73.8 L46.499,73.8 L75.3,50.1 C72.5,46.9 69.2,43.1 65.4,38.701 L65.4,38.701 C61.6,34.3 57.7,29.9 53.7,25.5 L53.7,25.5 C49.7,21.1 45.85,16.9 42.15,12.9 L42.15,12.9 C38.45,8.9 35.3,5.5 32.7,2.7 L32.7,2.7 L3.599,24.3 Z M0,88.5 L0,125.1 L26.1,125.1 L26.1,234.9 C26.1,239.1 27.099,242.65 29.1,245.55 L29.1,245.55 C31.1,248.45 33.65,250.55 36.75,251.85 L36.75,251.85 C39.849,253.15 43.25,253.5 46.95,252.9 L46.95,252.9 C50.65,252.3 54.201,250.6 57.6,247.8 L57.6,247.8 C65.2,241.6 71.95,235.7 77.85,230.1 L77.85,230.1 C83.75,224.5 87.5,220.9 89.099,219.3 L89.099,219.3 L78.6,180.3 L60.9,196.799 L60.9,118.8 C60.9,112.6 60.4,107.55 59.4,103.65 L59.4,103.65 C58.4,99.75 56.7,96.7 54.3,94.5 L54.3,94.5 C51.9,92.3 48.7,90.75 44.7,89.85 L44.7,89.85 C40.7,88.95 35.7,88.5 29.7,88.5 L29.7,88.5 L0,88.5 Z" id="path-11"></path>
        <path d="M38.16,-2.27373675e-13 L38.16,35.6 C38.16,40.56 36.96,44.16 34.719,46.56 L34.719,46.56 C32.4,48.88 28.72,50.08 23.76,50.08 L23.76,50.08 C18.72,50.08 15.04,48.88 12.8,46.56 L12.8,46.56 C10.48,44.16 9.36,40.56 9.36,35.6 L9.36,35.6 L9.36,-2.27373675e-13 L0,-2.27373675e-13 L0,35.44 C0,42.88 2.079,48.56 6.32,52.56 L6.32,52.56 C10.32,56.32 16.159,58.24 23.76,58.24 L23.76,58.24 C31.28,58.24 37.12,56.32 41.28,52.48 L41.28,52.48 C45.44,48.56 47.52,42.88 47.52,35.44 L47.52,35.44 L47.52,-2.27373675e-13 L38.16,-2.27373675e-13 Z" id="path-13"></path>
        <path d="M6.32,9.04 C2.08,14.32 0,21.28 0,29.761 L0,29.761 C0,38.4 1.999,45.28 6.08,50.401 L6.08,50.401 C10.72,56.32 17.84,59.36 27.36,59.36 L27.36,59.36 C33.52,59.36 38.8,57.6 43.2,54.08 L43.2,54.08 C47.92,50.32 50.88,45.12 52.16,38.4 L52.16,38.4 L43.04,38.4 C41.919,42.72 40,46 37.28,48.16 L37.28,48.16 C34.72,50.08 31.36,51.12 27.28,51.12 L27.28,51.12 C21.04,51.12 16.4,49.12 13.439,45.28 L13.439,45.28 C10.72,41.68 9.36,36.48 9.36,29.761 L9.36,29.761 C9.36,23.2 10.72,18.08 13.52,14.4 L13.52,14.4 C16.56,10.24 21.04,8.24 27.04,8.24 L27.04,8.24 C31.04,8.24 34.32,9.04 36.88,10.8 L36.88,10.8 C39.52,12.56 41.28,15.28 42.24,19.041 L42.24,19.041 L51.36,19.041 C50.479,13.28 48,8.64 43.84,5.28 L43.84,5.28 C39.52,1.76 33.92,-2.27373675e-13 27.2,-2.27373675e-13 L27.2,-2.27373675e-13 C18.08,-2.27373675e-13 11.119,2.96 6.32,9.04 L6.32,9.04 Z" id="path-15"></path>
        <path d="M38.16,-2.27373675e-13 L38.16,35.6 C38.16,40.56 36.96,44.16 34.72,46.56 L34.72,46.56 C32.4,48.88 28.72,50.08 23.76,50.08 L23.76,50.08 C18.72,50.08 15.039,48.88 12.8,46.56 L12.8,46.56 C10.48,44.16 9.36,40.56 9.36,35.6 L9.36,35.6 L9.36,-2.27373675e-13 L0,-2.27373675e-13 L0,35.44 C0,42.88 2.08,48.56 6.32,52.56 L6.32,52.56 C10.32,56.32 16.16,58.24 23.76,58.24 L23.76,58.24 C31.28,58.24 37.119,56.32 41.28,52.48 L41.28,52.48 C45.44,48.56 47.52,42.88 47.52,35.44 L47.52,35.44 L47.52,-2.27373675e-13 L38.16,-2.27373675e-13 Z" id="path-17"></path>
        <path d="M8.159,4.16 C3.839,7.04 1.759,11.04 1.759,16.08 L1.759,16.08 C1.759,21.12 3.92,24.96 8.32,27.599 L8.32,27.599 C10,28.56 14.4,30.16 21.44,32.4 L21.44,32.4 C27.76,34.32 31.44,35.6 32.56,36.161 L32.56,36.161 C36.08,37.92 37.92,40.32 37.92,43.36 L37.92,43.36 C37.92,45.76 36.639,47.6 34.24,49.04 L34.24,49.04 C31.84,50.401 28.48,51.12 24.32,51.12 L24.32,51.12 C19.599,51.12 16.16,50.24 13.92,48.64 L13.92,48.64 C11.44,46.801 9.92,43.68 9.28,39.36 L9.28,39.36 L0,39.36 C0.4,46.64 3.04,51.92 7.84,55.28 L7.84,55.28 C11.76,58 17.28,59.36 24.32,59.36 L24.32,59.36 C31.599,59.36 37.28,57.84 41.28,54.96 L41.28,54.96 C45.28,52 47.28,47.92 47.28,42.8 L47.28,42.8 C47.28,37.52 44.8,33.44 39.84,30.48 L39.84,30.48 C37.6,29.2 32.64,27.28 24.88,24.88 L24.88,24.88 C19.599,23.2 16.32,22 15.12,21.36 L15.12,21.36 C12.4,19.92 11.12,17.92 11.12,15.521 L11.12,15.521 C11.12,12.8 12.24,10.8 14.639,9.6 L14.639,9.6 C16.56,8.56 19.28,8.08 22.88,8.08 L22.88,8.08 C27.04,8.08 30.24,8.8 32.32,10.4 L32.32,10.4 C34.4,11.921 35.92,14.48 36.72,18 L36.72,18 L45.999,18 C45.44,11.76 43.119,7.12 39.12,4.16 L39.12,4.16 C35.36,1.36 30.08,-2.27373675e-13 23.36,-2.27373675e-13 L23.36,-2.27373675e-13 C17.2,-2.27373675e-13 12.16,1.36 8.159,4.16 L8.159,4.16 Z" id="path-19"></path>
        <path d="M0,-2.27373675e-13 L0,57.12 L9.36,57.12 L9.36,33.84 L24.16,33.84 C27.36,33.84 29.84,34.48 31.52,35.92 L31.52,35.92 C33.119,37.28 34.08,39.52 34.4,42.64 L34.4,42.64 L35.119,49.68 C35.44,52.88 36.24,55.36 37.6,57.12 L37.6,57.12 L47.76,57.12 C45.84,55.04 44.64,52.24 44.32,48.72 L44.32,48.72 L43.36,39.52 C42.72,33.92 39.92,30.64 34.96,29.52 L34.96,29.52 L34.96,29.36 C38,28.56 40.48,26.88 42.24,24.32 L42.24,24.32 C43.84,22 44.64,19.36 44.64,16.4 L44.64,16.4 C44.64,10.96 42.8,6.8 39.28,3.92 L39.28,3.92 C35.92,1.28 31.28,-2.27373675e-13 25.44,-2.27373675e-13 L25.44,-2.27373675e-13 L0,-2.27373675e-13 Z M9.36,8 L24.16,8 C28,8 30.8,8.64 32.56,10.08 L32.56,10.08 C34.32,11.44 35.199,13.681 35.199,16.8 L35.199,16.8 C35.199,19.68 34.32,21.92 32.56,23.52 L32.56,23.52 C30.64,25.041 27.84,25.84 24.16,25.84 L24.16,25.84 L9.36,25.84 L9.36,8 Z" id="path-21"></path>
        <path d="M6.32,9.04 C2.08,14.32 0,21.28 0,29.761 L0,29.761 C0,38.4 2,45.28 6.08,50.401 L6.08,50.401 C10.72,56.32 17.84,59.36 27.359,59.36 L27.359,59.36 C33.52,59.36 38.799,57.6 43.199,54.08 L43.199,54.08 C47.92,50.32 50.88,45.12 52.16,38.4 L52.16,38.4 L43.04,38.4 C41.92,42.72 40,46 37.279,48.16 L37.279,48.16 C34.72,50.08 31.36,51.12 27.28,51.12 L27.28,51.12 C21.04,51.12 16.4,49.12 13.44,45.28 L13.44,45.28 C10.72,41.68 9.36,36.48 9.36,29.761 L9.36,29.761 C9.36,23.2 10.72,18.08 13.52,14.4 L13.52,14.4 C16.56,10.24 21.04,8.24 27.04,8.24 L27.04,8.24 C31.04,8.24 34.32,9.04 36.88,10.8 L36.88,10.8 C39.52,12.56 41.28,15.28 42.24,19.041 L42.24,19.041 L51.36,19.041 C50.48,13.28 48,8.64 43.84,5.28 L43.84,5.28 C39.52,1.76 33.92,-2.27373675e-13 27.2,-2.27373675e-13 L27.2,-2.27373675e-13 C18.08,-2.27373675e-13 11.12,2.96 6.32,9.04 L6.32,9.04 Z" id="path-23"></path>
    </defs>
    <g id="页面-1" stroke="none" stroke-width="1" fill="none" fill-rule="evenodd">
        <g id="编组-2">
            <g id="编组">
                <mask id="mask-2" fill="white">
                    <use xlink:href="#path-1"></use>
                </mask>
                <g id="Clip-2"></g>
                <polygon id="Fill-1" fill="#0F4DE6" mask="url(#mask-2)" points="-0.999 481 483.001 481 483.001 -1 -0.999 -1"></polygon>
            </g>
            <g id="编组" transform="translate(598.001000, 27.801000)">
                <mask id="mask-4" fill="white">
                    <use xlink:href="#path-3"></use>
                </mask>
                <g id="Clip-4"></g>
                <polygon id="Fill-3" fill="#2E2E2E" mask="url(#mask-4)" points="-1 274.599 255.4 274.599 255.4 -1.001 -1 -1.001"></polygon>
            </g>
            <g id="编组" transform="translate(855.955000, 26.300000)">
                <mask id="mask-6" fill="white">
                    <use xlink:href="#path-5"></use>
                </mask>
                <g id="Clip-6"></g>
                <polygon id="Fill-5" fill="#2E2E2E" mask="url(#mask-6)" points="-1 265.6 278.8 265.6 278.8 -1 -1 -1"></polygon>
            </g>
            <g id="编组" transform="translate(1121.709000, 23.000000)">
                <mask id="mask-8" fill="white">
                    <use xlink:href="#path-7"></use>
                </mask>
                <g id="Clip-8"></g>
                <polygon id="Fill-7" fill="#2E2E2E" mask="url(#mask-8)" points="-1 270.1 273.1 270.1 273.1 -1 -1 -1"></polygon>
            </g>
            <g id="编组" transform="translate(1402.763000, 29.600000)">
                <mask id="mask-10" fill="white">
                    <use xlink:href="#path-9"></use>
                </mask>
                <g id="Clip-10"></g>
                <polygon id="Fill-9" fill="#2E2E2E" mask="url(#mask-10)" points="-1 262.6 262.9 262.6 262.9 -1 -1 -1"></polygon>
            </g>
            <g id="编组" transform="translate(1674.216000, 26.900000)">
                <mask id="mask-12" fill="white">
                    <use xlink:href="#path-11"></use>
                </mask>
                <g id="Clip-12"></g>
                <polygon id="Fill-11" fill="#2E2E2E" mask="url(#mask-12)" points="-1 269.8 260.2 269.8 260.2 -1 -1 -1"></polygon>
            </g>
            <polygon id="Fill-13" fill="#212121" points="603.6006 395.8794 603.6006 453.0004 612.9606 453.0004 612.9606 427.7194 640.8806 427.7194 640.8806 419.7204 612.9606 419.7204 612.9606 403.8804 642.5616 403.8804 642.5616 395.8794"></polygon>
            <path d="M671.4003,395.8794 L649.5613,453.0004 L659.5613,453.0004 L664.7613,438.6794 L688.6813,438.6794 L693.8813,453.0004 L703.8813,453.0004 L682.0413,395.8794 L671.4003,395.8794 Z M676.6013,405.9594 L676.9213,405.9594 L685.8803,431.0004 L667.5613,431.0004 L676.6013,405.9594 Z" id="Fill-14" fill="#212121"></path>
            <polygon id="Fill-15" fill="#212121" points="714.481 453.001 723.84 453.001 723.84 395.88 714.481 395.88"></polygon>
            <polygon id="Fill-16" fill="#212121" points="735.6414 395.8794 735.6414 403.8804 754.3614 403.8804 754.3614 453.0004 763.7214 453.0004 763.7214 403.8804 782.4404 403.8804 782.4404 395.8794"></polygon>
            <polygon id="Fill-17" fill="#212121" points="832.5614 395.8794 832.5614 419.7204 803.6014 419.7204 803.6014 395.8794 794.2414 395.8794 794.2414 453.0004 803.6014 453.0004 803.6014 427.7194 832.5614 427.7194 832.5614 453.0004 841.9214 453.0004 841.9214 395.8794"></polygon>
            <polygon id="Fill-18" fill="#212121" points="858.1206 395.8794 858.1206 453.0004 867.4806 453.0004 867.4806 427.7194 895.4016 427.7194 895.4016 419.7204 867.4806 419.7204 867.4806 403.8804 897.0806 403.8804 897.0806 395.8794"></polygon>
            <g id="编组" transform="translate(909.681000, 395.880000)">
                <mask id="mask-14" fill="white">
                    <use xlink:href="#path-13"></use>
                </mask>
                <g id="Clip-20"></g>
                <polygon id="Fill-19" fill="#212121" mask="url(#mask-14)" points="-1 59.24 48.52 59.24 48.52 -1 -1 -1"></polygon>
            </g>
            <polygon id="Fill-21" fill="#212121" points="973.4007 395.8794 973.4007 453.0004 1013.5617 453.0004 1013.5617 444.9994 982.6807 444.9994 982.6807 395.8794"></polygon>
            <polygon id="Fill-22" fill="#212121" points="1057.4004 395.8794 1057.4004 453.0004 1099.9604 453.0004 1099.9604 444.9994 1066.7604 444.9994 1066.7604 427.7194 1096.6814 427.7194 1096.6814 419.7204 1066.7604 419.7204 1066.7604 403.8804 1098.6004 403.8804 1098.6004 395.8794"></polygon>
            <polygon id="Fill-23" fill="#212121" points="1148.1609 395.8794 1134.7209 416.0404 1121.2809 395.8794 1109.8409 395.8794 1128.9609 423.4794 1108.5609 453.0004 1120.0009 453.0004 1134.7209 430.9214 1149.4409 453.0004 1160.8809 453.0004 1140.3199 423.4794 1159.6009 395.8794"></polygon>
            <polygon id="Fill-24" fill="#212121" points="1171.8804 395.8794 1171.8804 453.0004 1214.4414 453.0004 1214.4414 444.9994 1181.2404 444.9994 1181.2404 427.7194 1211.1614 427.7194 1211.1614 419.7204 1181.2404 419.7204 1181.2404 403.8804 1213.0804 403.8804 1213.0804 395.8794"></polygon>
            <g id="编组" transform="translate(1225.841000, 394.760000)">
                <mask id="mask-16" fill="white">
                    <use xlink:href="#path-15"></use>
                </mask>
                <g id="Clip-26"></g>
                <polygon id="Fill-25" fill="#212121" mask="url(#mask-16)" points="-1 60.36 53.16 60.36 53.16 -1 -1 -1"></polygon>
            </g>
            <g id="编组" transform="translate(1291.801000, 395.880000)">
                <mask id="mask-18" fill="white">
                    <use xlink:href="#path-17"></use>
                </mask>
                <g id="Clip-28"></g>
                <polygon id="Fill-27" fill="#212121" mask="url(#mask-18)" points="-1 59.24 48.52 59.24 48.52 -1 -1 -1"></polygon>
            </g>
            <polygon id="Fill-29" fill="#212121" points="1351.1206 395.8794 1351.1206 403.8804 1369.8406 403.8804 1369.8406 453.0004 1379.2006 453.0004 1379.2006 403.8804 1397.9206 403.8804 1397.9206 395.8794"></polygon>
            <polygon id="Fill-30" fill="#212121" points="1409.721 453.001 1419.081 453.001 1419.081 395.88 1409.721 395.88"></polygon>
            <polygon id="Fill-31" fill="#212121" points="1471.8404 395.8794 1456.1604 442.4404 1455.9214 442.4404 1440.2404 395.8794 1430.0814 395.8794 1450.4004 453.0004 1461.6814 453.0004 1482.0004 395.8794"></polygon>
            <polygon id="Fill-32" fill="#212121" points="1493.0012 395.8794 1493.0012 453.0004 1535.5612 453.0004 1535.5612 444.9994 1502.3602 444.9994 1502.3602 427.7194 1532.2812 427.7194 1532.2812 419.7204 1502.3602 419.7204 1502.3602 403.8804 1534.2012 403.8804 1534.2012 395.8794"></polygon>
            <g id="编组" transform="translate(1577.801000, 394.760000)">
                <mask id="mask-20" fill="white">
                    <use xlink:href="#path-19"></use>
                </mask>
                <g id="Clip-34"></g>
                <polygon id="Fill-33" fill="#212121" mask="url(#mask-20)" points="-1 60.36 48.28 60.36 48.28 -1 -1 -1"></polygon>
            </g>
            <polygon id="Fill-35" fill="#212121" points="1638.0813 395.8794 1638.0813 453.0004 1680.6413 453.0004 1680.6413 444.9994 1647.4413 444.9994 1647.4413 427.7194 1677.3613 427.7194 1677.3613 419.7204 1647.4413 419.7204 1647.4413 403.8804 1679.2803 403.8804 1679.2803 395.8794"></polygon>
            <path d="M1710.6814,395.8794 L1688.8414,453.0004 L1698.8414,453.0004 L1704.0404,438.6794 L1727.9604,438.6794 L1733.1604,453.0004 L1743.1604,453.0004 L1721.3204,395.8794 L1710.6814,395.8794 Z M1715.8804,405.9594 L1716.2014,405.9594 L1725.1604,431.0004 L1706.8404,431.0004 L1715.8804,405.9594 Z" id="Fill-36" fill="#212121"></path>
            <g id="编组" transform="translate(1753.761000, 395.880000)">
                <mask id="mask-22" fill="white">
                    <use xlink:href="#path-21"></use>
                </mask>
                <g id="Clip-38"></g>
                <polygon id="Fill-37" fill="#212121" mask="url(#mask-22)" points="-1 58.12 48.76 58.12 48.76 -1 -1 -1"></polygon>
            </g>
            <g id="编组" transform="translate(1812.121000, 394.760000)">
                <mask id="mask-24" fill="white">
                    <use xlink:href="#path-23"></use>
                </mask>
                <g id="Clip-40"></g>
                <polygon id="Fill-39" fill="#212121" mask="url(#mask-24)" points="-1 60.36 53.16 60.36 53.16 -1 -1 -1"></polygon>
            </g>
            <polygon id="Fill-41" fill="#212121" points="1916.3999 395.8794 1916.3999 419.7204 1887.4409 419.7204 1887.4409 395.8794 1878.0819 395.8794 1878.0819 453.0004 1887.4409 453.0004 1887.4409 427.7194 1916.3999 427.7194 1916.3999 453.0004 1925.7599 453.0004 1925.7599 395.8794"></polygon>
        </g>
    </g>
</svg>